<svg id="_01-booking" data-name="01-booking" xmlns="http://www.w3.org/2000/svg" viewBox="0 0 64 64"><path d="M43,57H1V13H4V53H29a2.938,2.938,0,0,1,3,3,2.938,2.938,0,0,1,3-3h8Z" style="fill:#8394b2"/><path d="M63,13V57H51V53h9V13Z" style="fill:#8394b2"/><path d="M51,57v4l-4-4-4,4V53h8Z" style="fill:#e63b47"/><polygon points="56 31 56 35 36 35 43 28 47 32 52 27 56 31" style="fill:#01a84e"/><path d="M56,13V31l-4-4-5,5-4-4-7,7V13h2.32c1.17,3.87,5.28,5.6,5.28,9.64a2.4,2.4,0,0,0,4.8,0c0-4.04,4.11-5.77,5.28-9.64Z" style="fill:#4989f4"/><path d="M29,9H4V53H29a2.938,2.938,0,0,1,3,3V12A2.938,2.938,0,0,0,29,9ZM16,24a3.011,3.011,0,0,1,3,3,3,3,0,0,1-6,0,3.011,3.011,0,0,1,3-3ZM28,35V49H8V33H28Z" style="fill:#fbfbfb"/><path d="M35,53a2.938,2.938,0,0,0-3,3V12a2.938,2.938,0,0,1,3-3h3.22A8.162,8.162,0,0,0,38,10.86,6.867,6.867,0,0,0,38.32,13H36V35H56V13H53.68A6.867,6.867,0,0,0,54,10.86,8.162,8.162,0,0,0,53.78,9H60V53H35Z" style="fill:#fbfbfb"/><path d="M32,56a2.938,2.938,0,0,0-3-3H4V13H3V55H28.893a2.8,2.8,0,0,1,2.925,2H32Z" style="fill:#5c6979"/><path d="M35,53a2.938,2.938,0,0,0-3,3v1h.182a2.8,2.8,0,0,1,2.925-2H43V53Z" style="fill:#5c6979"/><path d="M61,55V13H60V53H51v2H61Z" style="fill:#5c6979"/><circle cx="46" cy="11" r="3" style="fill:#96272e"/><path d="M38.22,9A8.044,8.044,0,0,1,53.78,9,8.162,8.162,0,0,1,54,10.86,6.867,6.867,0,0,1,53.68,13c-1.17,3.87-5.28,5.6-5.28,9.64a2.4,2.4,0,0,1-4.8,0c0-4.04-4.11-5.77-5.28-9.64A6.867,6.867,0,0,1,38,10.86,8.162,8.162,0,0,1,38.22,9ZM49,11a3,3,0,1,0-3,3A3,3,0,0,0,49,11Z" style="fill:#e63b47"/><path d="M41.6,24.64a2.4,2.4,0,0,0,4.767.324A2.467,2.467,0,0,1,46,25a2.38,2.38,0,0,1-2.4-2.36c0-4.04-4.11-5.77-5.28-9.64H36.01a6.844,6.844,0,0,0,.31,2C37.49,18.87,41.6,20.6,41.6,24.64Z" style="fill:#084eea"/><path d="M46,7a4,4,0,1,0,4,4A4,4,0,0,0,46,7Zm0,7a3,3,0,1,1,3-3A3,3,0,0,1,46,14Z" style="fill:#b32e37"/><path d="M36,37V9H35a2.938,2.938,0,0,0-3,3V56a2.938,2.938,0,0,1,3-3H60V49H48A12,12,0,0,1,36,37Z" style="fill:#e8eff5"/><polygon points="28 35 28 41 25 38 28 35" style="fill:#4989f4"/><polygon points="13 44 8 49 8 39 13 44" style="fill:#01a84e"/><polygon points="28 49 14 49 21 42 28 49" style="fill:#4989f4"/><polygon points="28 33 28 35 25 38 28 41 28 49 21 42 14 49 8 49 13 44 8 39 8 33 16 41 24 33 28 33" style="fill:#fbcb00"/><polygon points="16 41 8 33 16 33 24 33 16 41" style="fill:#01a84e"/><path d="M20,49H8V9H4V53H29a2.938,2.938,0,0,1,3,3V49H20Z" style="fill:#e8eff5"/><path d="M8.212,39.212,8,39V49l3.515-3.515A11.966,11.966,0,0,1,8.212,39.212Z" style="fill:#019144"/><path d="M14,49h6a11.925,11.925,0,0,1-4.931-1.069Z" style="fill:#084eea"/><path d="M8,37v2l.212.212A12.03,12.03,0,0,1,8,37Z" style="fill:#faab1b"/><path d="M11.515,45.485,8,49h6l1.069-1.069A11.983,11.983,0,0,1,11.515,45.485Z" style="fill:#faab1b"/><rect x="11" y="12.5" width="18" height="1" style="fill:#8394b2"/><rect x="7" y="12.5" width="2" height="1" style="fill:#8394b2"/><rect x="11" y="20.5" width="18" height="1" style="fill:#8394b2"/><rect x="7" y="20.5" width="2" height="1" style="fill:#8394b2"/><rect x="7" y="16.5" width="22" height="1" style="fill:#8394b2"/><rect x="7" y="24.5" width="22" height="1" style="fill:#8394b2"/><path d="M13.77,25A3,3,0,0,1,19,27a3,3,0,0,1-6,0A2.965,2.965,0,0,1,13.77,25Z" style="fill:#b32e37"/><circle cx="16" cy="27" r="2" style="fill:#e63b47"/><path d="M15.5,29.95V37h1V29.95a2.525,2.525,0,0,1-1,0Z" style="fill:#a8b7d4"/><path d="M51,55V53H43v8l4-4V55Z" style="fill:#b32e37"/><rect x="39" y="40.5" width="18" height="1" style="fill:#8394b2"/><rect x="35" y="40.5" width="2" height="1" style="fill:#8394b2"/><rect x="39" y="48.5" width="18" height="1" style="fill:#8394b2"/><rect x="35" y="48.5" width="2" height="1" style="fill:#8394b2"/><rect x="35" y="44.5" width="22" height="1" style="fill:#8394b2"/></svg>